HIERARCHY
ROOT Hips
{
  OFFSET 0.0000 0.0000 0.0000
  CHANNELS 6 Xposition Yposition Zposition Zrotation Xrotation Yrotation
  JOINT LeftHip
  {
    OFFSET 5.5000 0.0000 0.0000
    CHANNELS 3 Zrotation Xrotation Yrotation
    JOINT LeftKnee
    {
      OFFSET 0.0000 -17.5000 0.0000
      CHANNELS 3 Zrotation Xrotation Yrotation
      JOINT LeftAnkle
      {
        OFFSET 0.0000 -17.0000 0.0000
        CHANNELS 3 Zrotation Xrotation Yrotation
        End Site
        {
            OFFSET 0.0000 -4.7000 -2.0000
        }
      }
    }
  }
  JOINT RightHip
  {
    OFFSET -5.5000 -0.0000 0.0000
    CHANNELS 3 Zrotation Xrotation Yrotation
    JOINT RightKnee
    {
      OFFSET -0.0000 -17.5000 -0.0000
      CHANNELS 3 Zrotation Xrotation Yrotation
      JOINT RightAnkle
      {
        OFFSET 0.0000 -17.0000 0.0000
        CHANNELS 3 Zrotation Xrotation Yrotation
        End Site
        {
            OFFSET 0.0000 -4.7000 -2.0000
        }
      }
    }
  }
  JOINT Chest
  {
    OFFSET 0.0000 3.0000 -1.0000
    CHANNELS 3 Zrotation Xrotation Yrotation
    JOINT LeftCollar
    {
      OFFSET 0.0000 18.0000 1.0000
      CHANNELS 3 Zrotation Xrotation Yrotation
      JOINT LeftShoulder
      {
        OFFSET 6.5000 -0.0000 0.0000
        CHANNELS 3 Zrotation Xrotation Yrotation
        JOINT LeftElbow
        {
          OFFSET 0.0000 -11.0000 0.0000
          CHANNELS 3 Zrotation Xrotation Yrotation
          JOINT LeftWrist
          {
            OFFSET 0.0000 -10.5000 0.0000
            CHANNELS 3 Zrotation Xrotation Yrotation
            End Site
            {
                OFFSET 0.0000 -6.0000 0.0000
            }
          }
        }
      }
    }
    JOINT RightCollar
    {
      OFFSET 0.0000 18.0000 1.0000
      CHANNELS 3 Zrotation Xrotation Yrotation
      JOINT RightShoulder
      {
        OFFSET -6.5000 0.0000 -0.0000
        CHANNELS 3 Zrotation Xrotation Yrotation
        JOINT RightElbow
        {
          OFFSET 0.0000 -11.0000 0.0000
          CHANNELS 3 Zrotation Xrotation Yrotation
          JOINT RightWrist
          {
            OFFSET 0.0000 -10.5000 0.0000
            CHANNELS 3 Zrotation Xrotation Yrotation
            End Site
            {
                OFFSET 0.0000 -6.0000 0.0000
            }
          }
        }
      }
    }
    JOINT Neck
    {
      OFFSET 0.0000 18.0000 1.0000
      CHANNELS 3 Zrotation Xrotation Yrotation
      JOINT Head
      {
        OFFSET 0.0000 3.0000 0.0000
        CHANNELS 3 Zrotation Xrotation Yrotation
        End Site
        {
            OFFSET 0.0000 7.0000 0.0000
        }
      }
    }
  }
}
MOTION
Frames:	17
Frame Time:	0.033333
-1.0758 39.3442 -3.0691 -0.26 -3.70 4.72 0.18 -14.90 0.13 -0.00 31.21 1.89 -0.15 -9.58 -5.12 1.13 -12.67 -8.90 -0.00 29.56 -0.44 -1.77 -10.33 3.47 -0.38 9.33 -0.29 0.00 0.00 0.00 8.73 -78.08 -16.87 -180.00 -89.84 -176.17 -2.11 0.66 -79.48 0.00 0.00 0.00 -20.38 -79.20 8.70 0.00 -60.35 -3.57 -9.41 -44.04 76.63 0.00 0.00 0.00 3.06 5.88 -3.20 
-1.0873 39.3223 -3.0400 -0.30 -3.86 4.61 0.34 -14.86 0.45 -0.00 31.56 1.88 -0.16 -9.82 -5.31 1.25 -12.60 -8.66 -0.00 29.79 -0.44 -1.78 -10.47 3.33 -0.40 9.52 -0.12 0.00 0.00 0.00 9.57 -78.87 -15.80 180.00 -89.93 -176.14 -3.50 -3.89 -80.22 0.00 0.00 0.00 -20.44 -79.78 8.04 0.00 -59.57 -4.01 -6.79 -46.35 79.11 0.00 0.00 0.00 3.07 5.51 -3.28 
-1.1078 39.2980 -3.0188 -0.34 -3.99 4.50 0.49 -14.85 0.68 0.00 31.93 1.79 -0.18 -10.05 -5.36 1.37 -12.58 -8.47 0.00 30.04 -0.50 -1.80 -10.62 3.29 -0.41 9.69 0.00 0.00 0.00 0.00 9.21 -80.24 -17.10 -180.00 -89.10 -176.15 -3.95 -6.75 -81.11 0.00 0.00 0.00 -21.31 -80.94 7.98 0.00 -59.90 -3.27 -6.65 -46.94 79.50 0.00 0.00 0.00 3.05 4.91 -3.51 
-1.1160 39.2829 -3.0094 -0.38 -4.11 4.41 0.61 -14.82 0.88 0.00 32.16 1.70 -0.17 -10.21 -5.37 1.46 -12.53 -8.31 0.00 30.18 -0.56 -1.80 -10.69 3.27 -0.41 9.85 0.12 0.00 0.00 0.00 8.78 -81.23 -18.56 180.00 -88.99 -176.00 -4.52 -10.13 -82.36 0.00 0.00 0.00 -21.75 -82.06 8.98 0.00 -60.00 -2.44 -7.28 -47.68 79.50 0.00 0.00 0.00 2.98 4.52 -3.61 
-1.1332 39.2658 -2.9895 -0.41 -4.22 4.35 0.74 -14.80 1.11 -0.00 32.42 1.67 -0.19 -10.38 -5.50 1.57 -12.49 -8.11 -0.00 30.36 -0.58 -1.81 -10.80 3.13 -0.42 9.97 0.30 0.00 0.00 0.00 10.80 -81.25 -15.99 0.00 -89.53 4.27 -6.28 -15.06 -83.51 0.00 0.00 0.00 -21.16 -82.39 10.59 -0.00 -58.86 -2.31 -6.78 -50.00 80.56 0.00 0.00 0.00 2.96 4.00 -3.47 
-1.1345 39.2428 -3.0092 -0.44 -4.34 4.30 0.83 -14.85 1.32 -0.00 32.72 1.63 -0.16 -10.50 -5.62 1.64 -12.54 -7.92 -0.00 30.60 -0.62 -1.80 -10.88 3.02 -0.42 10.04 0.48 0.00 0.00 0.00 13.13 -80.82 -12.26 -0.00 -87.51 4.63 -8.45 -19.98 -84.50 0.00 0.00 0.00 -21.10 -82.05 10.33 0.00 -57.08 -3.20 -3.86 -53.16 83.46 0.00 0.00 0.00 3.00 3.43 -3.35 
-1.1373 39.2262 -2.9872 -0.46 -4.46 4.27 0.92 -14.82 1.49 -0.00 32.97 1.58 -0.15 -10.67 -5.69 1.71 -12.48 -7.76 -0.00 30.78 -0.69 -1.77 -11.00 2.96 -0.44 10.10 0.65 0.00 0.00 0.00 15.23 -80.59 -8.95 -0.00 -86.19 4.78 -10.22 -23.55 -85.06 0.00 0.00 0.00 -21.72 -81.78 8.94 0.00 -55.90 -3.98 -0.56 -55.29 86.45 0.00 0.00 0.00 3.01 3.13 -3.25 
-1.1537 39.2074 -2.9608 -0.50 -4.58 4.23 1.03 -14.80 1.58 0.00 33.25 1.48 -0.17 -10.85 -5.66 1.79 -12.43 -7.68 0.00 30.97 -0.81 -1.77 -11.14 3.03 -0.45 10.16 0.75 0.00 0.00 0.00 15.83 -80.96 -8.58 0.00 -86.11 4.73 -10.80 -25.23 -85.64 0.00 0.00 0.00 -23.60 -81.86 6.22 -0.00 -55.82 -4.37 2.17 -55.91 88.81 0.00 0.00 0.00 3.05 2.96 -3.32 
-1.1963 39.1915 -2.9242 -0.53 -4.68 4.18 1.16 -14.76 1.62 0.00 33.50 1.39 -0.23 -11.04 -5.58 1.90 -12.35 -7.66 0.00 31.10 -0.95 -1.82 -11.27 3.15 -0.44 10.23 0.79 0.00 0.00 0.00 15.16 -81.68 -10.42 -0.00 -86.85 4.73 -10.64 -25.85 -86.51 0.00 0.00 0.00 -25.65 -82.24 4.25 -0.00 -56.38 -4.02 2.48 -55.74 89.17 0.00 0.00 0.00 3.12 2.83 -3.59 
-1.2623 39.1746 -2.9029 -0.56 -4.77 4.12 1.33 -14.75 1.65 0.00 33.74 1.32 -0.35 -11.20 -5.53 2.06 -12.30 -7.64 0.00 31.23 -1.04 -1.91 -11.37 3.24 -0.44 10.31 0.81 0.00 0.00 0.00 13.77 -82.08 -13.09 0.00 -87.17 4.89 -10.64 -26.94 -87.82 0.00 0.00 0.00 -27.35 -82.58 3.09 0.00 -56.85 -3.59 2.02 -55.73 89.10 0.00 0.00 0.00 3.17 3.38 -3.90 
-1.3260 39.1574 -2.8574 -0.60 -4.85 4.09 1.51 -14.73 1.75 0.00 34.01 1.35 -0.47 -11.40 -5.67 2.23 -12.22 -7.56 0.00 31.36 -1.05 -2.01 -11.51 3.16 -0.47 10.39 0.90 0.00 0.00 0.00 12.77 -81.74 -13.91 0.00 -86.37 5.35 -11.93 -29.24 -89.47 0.00 0.00 0.00 -27.40 -82.33 3.89 -0.00 -56.34 -3.33 1.47 -57.02 89.25 0.00 0.00 0.00 3.08 3.86 -4.06 
-1.4039 39.1426 -2.8788 -0.63 -4.92 4.08 1.73 -14.79 1.90 -0.00 34.20 1.41 -0.60 -11.44 -5.92 2.42 -12.24 -7.44 -0.00 31.44 -1.03 -2.14 -11.52 2.97 -0.50 10.48 1.04 0.00 0.00 0.00 12.17 -80.98 -13.47 -0.00 -84.97 5.90 -13.72 -31.98 -90.92 0.00 0.00 0.00 -25.64 -81.56 5.53 -0.00 -55.32 -4.00 3.65 -58.91 91.92 0.00 0.00 0.00 3.10 4.25 -4.08 
-1.4068 39.1330 -2.9113 -0.66 -4.99 4.09 1.82 -14.85 2.06 -0.00 34.33 1.44 -0.59 -11.45 -6.10 2.49 -12.27 -7.30 -0.00 31.50 -1.03 -2.14 -11.49 2.82 -0.51 10.56 1.18 0.00 0.00 0.00 11.29 -80.37 -13.27 -0.00 -83.71 6.28 -15.17 -34.11 -91.90 0.00 0.00 0.00 -24.06 -80.60 6.15 0.00 -54.50 -5.00 7.56 -60.50 95.83 0.00 0.00 0.00 3.17 4.61 -4.12 
-1.3991 39.1255 -2.9202 -0.69 -5.05 4.09 1.85 -14.87 2.10 -0.00 34.44 1.34 -0.55 -11.49 -6.03 2.51 -12.26 -7.28 -0.00 31.56 -1.14 -2.10 -11.50 2.92 -0.50 10.64 1.20 0.00 0.00 0.00 9.04 -80.38 -15.63 0.00 -83.39 6.28 -15.30 -34.76 -92.42 0.00 0.00 0.00 -24.52 -80.10 4.44 -0.00 -54.76 -5.57 10.75 -60.64 98.59 0.00 0.00 0.00 3.30 4.56 -4.30 
-1.3876 39.1199 -2.9280 -0.73 -5.10 4.03 1.83 -14.88 1.98 0.00 34.55 1.13 -0.50 -11.54 -5.65 2.49 -12.24 -7.41 0.00 31.59 -1.37 -2.05 -11.51 3.33 -0.46 10.71 1.09 0.00 0.00 0.00 5.09 -80.68 -20.40 -0.00 -83.75 6.25 -14.95 -34.43 -93.21 0.00 0.00 0.00 -26.21 -80.20 2.50 0.00 -55.75 -5.23 10.49 -60.04 98.08 0.00 0.00 0.00 3.43 4.30 -4.62 
-1.3629 39.1149 -2.9476 -0.77 -5.14 3.95 1.78 -14.90 1.83 0.00 34.64 0.94 -0.44 -11.58 -5.21 2.44 -12.24 -7.57 0.00 31.61 -1.56 -1.99 -11.49 3.76 -0.43 10.78 0.94 0.00 0.00 0.00 1.63 -80.72 -24.53 0.00 -84.02 6.31 -15.05 -34.37 -94.33 0.00 0.00 0.00 -27.54 -80.38 1.56 0.00 -56.40 -4.73 9.26 -59.82 96.97 0.00 0.00 0.00 3.48 4.27 -4.91 
-1.3391 39.1096 -2.9624 -0.80 -5.18 3.86 1.75 -14.91 1.75 0.00 34.73 0.88 -0.40 -11.62 -4.98 2.41 -12.25 -7.66 0.00 31.65 -1.63 -1.95 -11.47 4.00 -0.42 10.83 0.90 0.00 0.00 0.00 1.71 -80.25 -24.05 0.00 -83.62 6.37 -15.99 -35.45 -95.15 0.00 0.00 0.00 -26.60 -80.11 2.97 -0.00 -56.09 -4.55 9.12 -60.68 97.27 0.00 0.00 0.00 3.51 4.29 -4.87 
